<?xml version="1.0" encoding="utf-8"?>
<!-- Generator: Adobe Illustrator 21.1.0, SVG Export Plug-In . SVG Version: 6.00 Build 0)  -->
<svg version="1.1" id="Layer_1" xmlns="http://www.w3.org/2000/svg" xmlns:xlink="http://www.w3.org/1999/xlink" x="0px" y="0px"
	 viewBox="0 0 841.9 595.3" style="enable-background:new 0 0 841.9 595.3;" xml:space="preserve">
<style type="text/css">
	.st0{fill:#FFFFFF;stroke:#000000;stroke-miterlimit:10;}
</style>
<polygon class="st0" points="220.7,383.1 216.3,383.1 211.9,383.1 207.4,383.1 203,383.1 198.6,383.1 194.2,383.1 189.7,383.1 
	185.3,383.1 180.9,383.1 176.4,383.1 172,383.1 167.6,383.1 163.2,383.1 158.7,383.1 154.3,383.1 149.9,383.1 145.4,383.1 
	141,383.1 136.6,383.1 132.1,383.1 127.7,383.1 123.3,383.1 118.9,383.1 114.4,383.1 110,383.1 105.6,383.1 101.1,383.1 96.7,383.1 
	92.3,383.1 87.9,383.1 83.4,383.1 79,383.1 79,376.9 79,370.7 79,364.5 79,358.3 79,352.1 79,345.9 79,339.7 79,333.5 79,327.3 
	79,321.1 79,314.9 79,308.7 79,302.5 79,296.3 79,290.1 79,283.9 79,277.7 79,271.5 79,265.3 79,259.1 79,252.9 79,246.7 79,240.5 
	79,234.3 79,228.1 79,221.9 79,215.7 79,209.5 79,203.3 79,197.1 79,190.9 79,184.7 83.4,184.7 87.9,184.7 92.3,184.7 96.7,184.7 
	101.1,184.7 105.6,184.7 110,184.7 114.4,184.7 118.9,184.7 123.3,184.7 127.7,184.7 132.1,184.7 136.6,184.7 141,184.7 
	145.4,184.7 149.9,184.7 154.3,184.7 158.7,184.7 163.2,184.7 167.6,184.7 172,184.7 176.4,184.7 180.9,184.7 185.3,184.7 
	189.7,184.7 194.2,184.7 198.6,184.7 203,184.7 207.4,184.7 211.9,184.7 216.3,184.7 220.7,184.7 220.7,190.9 220.7,197.1 
	220.7,203.3 220.7,209.5 220.7,215.7 220.7,221.9 220.7,228.1 220.7,234.3 220.7,240.5 220.7,246.7 220.7,252.9 220.7,259.1 
	220.7,265.3 220.7,271.5 220.7,277.7 220.7,283.9 220.7,290.1 220.7,296.3 220.7,302.5 220.7,308.7 220.7,314.9 220.7,321.1 
	220.7,327.3 220.7,333.5 220.7,339.7 220.7,345.9 220.7,352.1 220.7,358.3 220.7,364.5 220.7,370.7 220.7,376.9 "/>
</svg>
